<svg id="Layer_1" data-name="Layer 1" xmlns="http://www.w3.org/2000/svg" viewBox="0 0 1920 700"><defs><style>.cls-1{fill:none;stroke:#e1ecfc;stroke-miterlimit:10;}</style></defs><rect class="cls-1" width="1920" height="700"/><line class="cls-1" y1="666.67" x2="1920" y2="666.67"/><line class="cls-1" y1="633.33" x2="1920" y2="633.33"/><line class="cls-1" y1="600" x2="1920" y2="600"/><line class="cls-1" y1="566.67" x2="1920" y2="566.67"/><line class="cls-1" y1="533.33" x2="1920" y2="533.33"/><line class="cls-1" y1="500" x2="1920" y2="500"/><line class="cls-1" y1="466.67" x2="1920" y2="466.67"/><line class="cls-1" y1="433.33" x2="1920" y2="433.33"/><line class="cls-1" y1="400" x2="1920" y2="400"/><line class="cls-1" y1="366.67" x2="1920" y2="366.67"/><line class="cls-1" y1="333.33" x2="1920" y2="333.33"/><line class="cls-1" y1="300" x2="1920" y2="300"/><line class="cls-1" y1="266.67" x2="1920" y2="266.67"/><line class="cls-1" y1="233.33" x2="1920" y2="233.33"/><line class="cls-1" y1="200" x2="1920" y2="200"/><line class="cls-1" y1="166.67" x2="1920" y2="166.67"/><line class="cls-1" y1="133.33" x2="1920" y2="133.33"/><line class="cls-1" y1="100" x2="1920" y2="100"/><line class="cls-1" y1="66.67" x2="1920" y2="66.67"/><line class="cls-1" y1="33.33" x2="1920" y2="33.33"/><line class="cls-1" x1="1882.35" x2="1882.35" y2="700"/><line class="cls-1" x1="1844.71" x2="1844.71" y2="700"/><line class="cls-1" x1="1807.06" x2="1807.06" y2="700"/><line class="cls-1" x1="1769.41" x2="1769.41" y2="700"/><line class="cls-1" x1="1731.76" x2="1731.76" y2="700"/><line class="cls-1" x1="1694.12" x2="1694.12" y2="700"/><line class="cls-1" x1="1656.47" x2="1656.47" y2="700"/><line class="cls-1" x1="1618.82" x2="1618.82" y2="700"/><line class="cls-1" x1="1581.18" x2="1581.18" y2="700"/><line class="cls-1" x1="1543.53" x2="1543.53" y2="700"/><line class="cls-1" x1="1505.88" x2="1505.88" y2="700"/><line class="cls-1" x1="1468.24" x2="1468.24" y2="700"/><line class="cls-1" x1="1430.59" x2="1430.59" y2="700"/><line class="cls-1" x1="1392.94" x2="1392.94" y2="700"/><line class="cls-1" x1="1355.29" x2="1355.29" y2="700"/><line class="cls-1" x1="1317.65" x2="1317.65" y2="700"/><line class="cls-1" x1="1280" x2="1280" y2="700"/><line class="cls-1" x1="1242.35" x2="1242.35" y2="700"/><line class="cls-1" x1="1204.71" x2="1204.71" y2="700"/><line class="cls-1" x1="1167.06" x2="1167.06" y2="700"/><line class="cls-1" x1="1129.41" x2="1129.41" y2="700"/><line class="cls-1" x1="1091.76" x2="1091.76" y2="700"/><line class="cls-1" x1="1054.12" x2="1054.12" y2="700"/><line class="cls-1" x1="1016.47" x2="1016.47" y2="700"/><line class="cls-1" x1="978.82" x2="978.82" y2="700"/><line class="cls-1" x1="941.18" x2="941.18" y2="700"/><line class="cls-1" x1="903.53" x2="903.53" y2="700"/><line class="cls-1" x1="865.88" x2="865.88" y2="700"/><line class="cls-1" x1="828.24" x2="828.24" y2="700"/><line class="cls-1" x1="790.59" x2="790.59" y2="700"/><line class="cls-1" x1="752.94" x2="752.94" y2="700"/><line class="cls-1" x1="715.29" x2="715.29" y2="700"/><line class="cls-1" x1="677.65" x2="677.65" y2="700"/><line class="cls-1" x1="640" x2="640" y2="700"/><line class="cls-1" x1="602.35" x2="602.35" y2="700"/><line class="cls-1" x1="564.71" x2="564.71" y2="700"/><line class="cls-1" x1="527.06" x2="527.06" y2="700"/><line class="cls-1" x1="489.41" x2="489.41" y2="700"/><line class="cls-1" x1="451.76" x2="451.76" y2="700"/><line class="cls-1" x1="414.12" x2="414.12" y2="700"/><line class="cls-1" x1="376.47" x2="376.47" y2="700"/><line class="cls-1" x1="338.82" x2="338.82" y2="700"/><line class="cls-1" x1="301.18" x2="301.18" y2="700"/><line class="cls-1" x1="263.53" x2="263.53" y2="700"/><line class="cls-1" x1="225.88" x2="225.88" y2="700"/><line class="cls-1" x1="188.24" x2="188.24" y2="700"/><line class="cls-1" x1="150.59" x2="150.59" y2="700"/><line class="cls-1" x1="112.94" x2="112.94" y2="700"/><line class="cls-1" x1="75.29" x2="75.29" y2="700"/><line class="cls-1" x1="37.65" x2="37.65" y2="700"/></svg>